# xmcd
#
# Track frame offsets: 
#        150
#        16133
#        34120
#        54256
#        70685
#        95210
#        115818
#        135280
#        154734
#        169280
#        199796
#        216913
#        232682
#        250449
#        275154
#        296529
#        312821
#        328943
#
# Disc length: 4672 seconds
#
# Revision: 2
# Processed by: cddbd v1.5.1PL2 Copyright (c) Steve Scherf et al.
# Submitted via: ExactAudioCopy v0.95a5
#
DISCID=03123e12
DTITLE=Black Eyed Peas - Monkey Business
DYEAR=2005
DGENRE=Crossover
TTITLE0=Pump It
TTITLE1=Don't Phunk With My Heart
TTITLE2=My Style (feat. Jack Johnson)
TTITLE3=Don't Lie
TTITLE4=My Humps
TTITLE5=Like That (feat. Cee-Lo, John Legend, Talib Kweli and Q-Tip
TTITLE6=Dum Diddly
TTITLE7=Feel It
TTITLE8=Gone Going (feat. Jack Johnson)
TTITLE9=They Don't Want Music (feat. James Brown)
TTITLE10=Disco Club
TTITLE11=Bebot
TTITLE12=Ba Bump
TTITLE13=Audio Delite At Low Fidelity
TTITLE14=Union (feat. Sting)
TTITLE15=Let's Get It Started (Bonus Track)
TTITLE16=Hey Mama (Bonus Track)
TTITLE17=Where Is The Love (Bonus Track)
EXTD=
EXTT0=
EXTT1=
EXTT2=
EXTT3=
EXTT4=
EXTT5=
EXTT6=
EXTT7=
EXTT8=
EXTT9=
EXTT10=
EXTT11=
EXTT12=
EXTT13=
EXTT14=
EXTT15=
EXTT16=
EXTT17=
PLAYORDER=
